<svg xmlns="http://www.w3.org/2000/svg" xmlns:xlink="http://www.w3.org/2000/svg" viewBox="100 110 85 85">
  <defs>
    <linearGradient id="New_Gradient_Swatch_2-2" x1="116.69" y1="152.38" x2="187.16" y2="152.38" gradientUnits="userSpaceOnUse">
      <stop offset=".28" stop-color="#fd8b50"/>
      <stop offset=".92" stop-color="#63089a"/>
    </linearGradient>
    <linearGradient id="New_Gradient_Swatch_2-3" x1="179.7" y1="129.49" x2="179.7" y2="148.13" gradientTransform="tranzinc(270.16 -69.46) rotate(75.79)" xlink:href="#New_Gradient_Swatch_2-2"/>
    <linearGradient id="New_Gradient_Swatch_2-4" x1="135.1" y1="161.97" x2="95.52" y2="161.97" xlink:href="#New_Gradient_Swatch_2-2"/>
    <linearGradient id="New_Gradient_Swatch_2-5" x1="112.6" y1="149.48" x2="112.6" y2="173.63" xlink:href="#New_Gradient_Swatch_2-2"/>
    <linearGradient id="New_Gradient_Swatch_2-6" x1="158.25" y1="178.93" x2="134.28" y2="137.42" xlink:href="#New_Gradient_Swatch_2-2"/>
  </defs>
  <g>
    <path fill="url(#New_Gradient_Swatch_2-2)" d="M182.4,159.44c-.64.11-1.3.16-1.97.16-3.17,0-6.05-1.24-8.19-3.25h0s-.52-.53-.52-.53h0s-4.13-4.14-4.13-4.14l-13.17-13.2c-.64-.72-1.34-1.4-2.08-2.02-3.37-2.81-7.7-4.51-12.43-4.51-.18,0-.37,0-.55,0-4.75.13-9.08,1.97-12.39,4.94-.48.43-.93.88-1.36,1.35l-8.92,8.98c1.4-.96,3.02-1.63,4.77-1.92.64-.11,1.3-.16,1.97-.16,3.17,0,6.05,1.24,8.19,3.25h0s.52.53.52.53h0s4.13,4.14,4.13,4.14l13.17,13.2c.64.72,1.34,1.4,2.08,2.02,3.37,2.81,7.7,4.51,12.43,4.51.18,0,.37,0,.55,0,4.75-.13,9.08-1.97,12.39-4.94.48-.43.93-.88,1.36-1.35l8.92-8.98c-1.4.96-3.02,1.63-4.77,1.92Z"/>
    <ellipse fill="url(#New_Gradient_Swatch_2-3)" cx="179.7" cy="138.81" rx="9.29" ry="9.77" transform="tranzinc(1.04 278.95) rotate(-75.79)"/>
    <path fill="url(#New_Gradient_Swatch_2-4)" d="M130.39,152.73c-2.16-1.99-5.06-3.19-8.22-3.15-.67,0-1.33.07-1.97.19-1.74.31-3.35,1-4.74,1.98-.19.13-.37.27-.55.41l-2.17,2.24-17.21,17.7s.07.03.11.04c3.7,1.48,7.74,2.27,11.96,2.21,3.48-.04,6.81-.65,9.93-1.74h0c2.51-.87,4.87-2.06,7.04-3.51,3.84-2.56,7.08-5.94,9.48-9.89.38-.61.73-1.24,1.06-1.88l-4.71-4.61Z"/>
    <path fill="url(#New_Gradient_Swatch_2-5)" d="M129.9,152.64c-2.17-1.99-5.06-3.2-8.24-3.15-.67,0-1.33.07-1.97.18-1.75.31-3.35,1-4.75,1.99-.18.13-.37.27-.55.41l-2.18,2.24-17.23,17.73s.08.03.11.04c1.66.66,3.39,1.18,5.18,1.56l16.16-16.63,2.18-2.24c.18-.15.36-.28.55-.41,1.39-.98,3-1.67,4.75-1.99.64-.11,1.3-.18,1.97-.18,1.53-.02,3,.25,4.35.76l-.32-.31Z"/>
    <path fill="url(#New_Gradient_Swatch_2-6)" d="M169.26,171.09c-3.16,0-6.03-1.23-8.16-3.24h0l-.52-.52h0l-4.12-4.13-13.13-13.16c-.64-.72-1.34-1.4-2.07-2.02-3.36-2.81-7.68-4.49-12.39-4.49-.18,0-.37,0-.54,0-3.05.09-5.93.88-8.47,2.23.47-.15.96-.26,1.45-.34.64-.11,1.29-.16,1.97-.16,3.16,0,6.03,1.23,8.16,3.24h0s.52.53.52.53l4.12,4.13,13.12,13.16c.64.72,1.34,1.4,2.08,2.02,3.36,2.8,7.68,4.49,12.39,4.49.18,0,.37,0,.55-.01,3.05-.08,5.93-.87,8.47-2.22-.47.15-.96.26-1.45.34-.64.1-1.3.16-1.97.16Z"/>
  </g>
</svg>